<mxfile host="app.diagrams.net" modified="2023-03-25T20:00:02.275Z" agent="Mozilla/5.0 (Windows NT 10.0; Win64; x64) AppleWebKit/537.36 (KHTML, like Gecko) Chrome/111.0.0.0 Safari/537.36" etag="7n9IXVgEPfETOFsR2d3I" version="21.1.1" type="github">
  <diagram name="Page-1" id="IfBTLOQrOgOCPGEyT7os">
    <mxGraphModel dx="1050" dy="1649" grid="1" gridSize="10" guides="1" tooltips="1" connect="1" arrows="1" fold="1" page="1" pageScale="1" pageWidth="850" pageHeight="1100" math="0" shadow="0">
      <root>
        <mxCell id="0" />
        <mxCell id="1" parent="0" />
        <mxCell id="qZDUdrs_ygf457AYANE_-2" value="" style="whiteSpace=wrap;html=1;aspect=fixed;movable=0;resizable=0;rotatable=0;deletable=0;editable=0;locked=1;connectable=0;" vertex="1" parent="1">
          <mxGeometry x="40" y="-40" width="760" height="760" as="geometry" />
        </mxCell>
        <mxCell id="qZDUdrs_ygf457AYANE_-1" value="&lt;b&gt;&lt;font style=&quot;font-size: 15px;&quot;&gt; CI/CD Pipeline&lt;/font&gt;&lt;/b&gt;" style="rounded=0;whiteSpace=wrap;html=1;" vertex="1" parent="1">
          <mxGeometry x="300" y="-20" width="200" height="60" as="geometry" />
        </mxCell>
        <mxCell id="qZDUdrs_ygf457AYANE_-7" style="edgeStyle=orthogonalEdgeStyle;rounded=0;orthogonalLoop=1;jettySize=auto;html=1;exitX=1;exitY=0.5;exitDx=0;exitDy=0;" edge="1" parent="1" source="qZDUdrs_ygf457AYANE_-3">
          <mxGeometry relative="1" as="geometry">
            <mxPoint x="470" y="100" as="targetPoint" />
          </mxGeometry>
        </mxCell>
        <mxCell id="qZDUdrs_ygf457AYANE_-3" value="&lt;font style=&quot;font-size: 14px;&quot;&gt;Develop  &lt;/font&gt;" style="whiteSpace=wrap;html=1;aspect=fixed;" vertex="1" parent="1">
          <mxGeometry x="250" y="60" width="80" height="80" as="geometry" />
        </mxCell>
        <mxCell id="qZDUdrs_ygf457AYANE_-15" style="edgeStyle=orthogonalEdgeStyle;rounded=0;orthogonalLoop=1;jettySize=auto;html=1;exitX=1;exitY=0.5;exitDx=0;exitDy=0;" edge="1" parent="1" source="qZDUdrs_ygf457AYANE_-6">
          <mxGeometry relative="1" as="geometry">
            <mxPoint x="460" y="230" as="targetPoint" />
          </mxGeometry>
        </mxCell>
        <mxCell id="qZDUdrs_ygf457AYANE_-6" value="&lt;font style=&quot;font-size: 14px;&quot;&gt;CircleCI &lt;/font&gt;" style="whiteSpace=wrap;html=1;aspect=fixed;" vertex="1" parent="1">
          <mxGeometry x="250" y="190" width="80" height="80" as="geometry" />
        </mxCell>
        <mxCell id="qZDUdrs_ygf457AYANE_-11" style="edgeStyle=orthogonalEdgeStyle;rounded=0;orthogonalLoop=1;jettySize=auto;html=1;" edge="1" parent="1" source="qZDUdrs_ygf457AYANE_-8">
          <mxGeometry relative="1" as="geometry">
            <mxPoint x="290" y="180" as="targetPoint" />
            <Array as="points">
              <mxPoint x="526" y="160" />
              <mxPoint x="290" y="160" />
            </Array>
          </mxGeometry>
        </mxCell>
        <mxCell id="qZDUdrs_ygf457AYANE_-8" value="" style="dashed=0;outlineConnect=0;html=1;align=center;labelPosition=center;verticalLabelPosition=bottom;verticalAlign=top;shape=mxgraph.webicons.github;gradientColor=#DFDEDE" vertex="1" parent="1">
          <mxGeometry x="480" y="54.400000000000006" width="91.2" height="91.2" as="geometry" />
        </mxCell>
        <mxCell id="qZDUdrs_ygf457AYANE_-16" style="edgeStyle=orthogonalEdgeStyle;rounded=0;orthogonalLoop=1;jettySize=auto;html=1;exitX=0.5;exitY=1;exitDx=0;exitDy=0;" edge="1" parent="1" source="qZDUdrs_ygf457AYANE_-12">
          <mxGeometry relative="1" as="geometry">
            <mxPoint x="510" y="320" as="targetPoint" />
          </mxGeometry>
        </mxCell>
        <mxCell id="qZDUdrs_ygf457AYANE_-21" style="edgeStyle=orthogonalEdgeStyle;rounded=0;orthogonalLoop=1;jettySize=auto;html=1;exitX=0.75;exitY=1;exitDx=0;exitDy=0;" edge="1" parent="1" source="qZDUdrs_ygf457AYANE_-12">
          <mxGeometry relative="1" as="geometry">
            <mxPoint x="680" y="320" as="targetPoint" />
          </mxGeometry>
        </mxCell>
        <mxCell id="qZDUdrs_ygf457AYANE_-12" value="&lt;font style=&quot;font-size: 14px;&quot;&gt;Deploy&lt;/font&gt;" style="whiteSpace=wrap;html=1;aspect=fixed;" vertex="1" parent="1">
          <mxGeometry x="470" y="190" width="80" height="80" as="geometry" />
        </mxCell>
        <mxCell id="qZDUdrs_ygf457AYANE_-17" style="edgeStyle=orthogonalEdgeStyle;rounded=0;orthogonalLoop=1;jettySize=auto;html=1;" edge="1" parent="1" source="qZDUdrs_ygf457AYANE_-13">
          <mxGeometry relative="1" as="geometry">
            <mxPoint x="350" y="376.5" as="targetPoint" />
          </mxGeometry>
        </mxCell>
        <mxCell id="qZDUdrs_ygf457AYANE_-22" style="edgeStyle=orthogonalEdgeStyle;rounded=0;orthogonalLoop=1;jettySize=auto;html=1;" edge="1" parent="1" source="qZDUdrs_ygf457AYANE_-26">
          <mxGeometry relative="1" as="geometry">
            <mxPoint x="510" y="490" as="targetPoint" />
          </mxGeometry>
        </mxCell>
        <mxCell id="qZDUdrs_ygf457AYANE_-13" value="" style="outlineConnect=0;dashed=0;verticalLabelPosition=bottom;verticalAlign=top;align=center;html=1;shape=mxgraph.aws3.elastic_beanstalk;fillColor=#F58534;gradientColor=none;" vertex="1" parent="1">
          <mxGeometry x="476.25" y="330" width="67.5" height="93" as="geometry" />
        </mxCell>
        <mxCell id="qZDUdrs_ygf457AYANE_-14" value="" style="outlineConnect=0;dashed=0;verticalLabelPosition=bottom;verticalAlign=top;align=center;html=1;shape=mxgraph.aws3.rds;fillColor=#2E73B8;gradientColor=none;" vertex="1" parent="1">
          <mxGeometry x="270" y="336" width="72" height="81" as="geometry" />
        </mxCell>
        <mxCell id="qZDUdrs_ygf457AYANE_-18" value="" style="outlineConnect=0;dashed=0;verticalLabelPosition=bottom;verticalAlign=top;align=center;html=1;shape=mxgraph.aws3.s3;fillColor=#E05243;gradientColor=none;" vertex="1" parent="1">
          <mxGeometry x="476.25" y="500" width="76.5" height="93" as="geometry" />
        </mxCell>
        <mxCell id="qZDUdrs_ygf457AYANE_-20" value="" style="verticalLabelPosition=bottom;html=1;verticalAlign=top;strokeWidth=1;align=center;outlineConnect=0;dashed=0;outlineConnect=0;shape=mxgraph.aws3d.s3Bucket;fillColor=#4286c5;strokeColor=#57A2D8;aspect=fixed;" vertex="1" parent="1">
          <mxGeometry x="650" y="336" width="61.5" height="63.800000000000004" as="geometry" />
        </mxCell>
        <mxCell id="qZDUdrs_ygf457AYANE_-23" value="RDS PostgreSql" style="text;html=1;strokeColor=none;fillColor=none;align=center;verticalAlign=middle;whiteSpace=wrap;rounded=0;" vertex="1" parent="1">
          <mxGeometry x="276" y="430" width="60" height="30" as="geometry" />
        </mxCell>
        <mxCell id="qZDUdrs_ygf457AYANE_-24" value="S3 static website" style="text;html=1;strokeColor=none;fillColor=none;align=center;verticalAlign=middle;whiteSpace=wrap;rounded=0;" vertex="1" parent="1">
          <mxGeometry x="651.5" y="417" width="60" height="30" as="geometry" />
        </mxCell>
        <mxCell id="qZDUdrs_ygf457AYANE_-25" value="S3 bucket" style="text;html=1;strokeColor=none;fillColor=none;align=center;verticalAlign=middle;whiteSpace=wrap;rounded=0;" vertex="1" parent="1">
          <mxGeometry x="490" y="610" width="60" height="30" as="geometry" />
        </mxCell>
        <mxCell id="qZDUdrs_ygf457AYANE_-27" value="" style="edgeStyle=orthogonalEdgeStyle;rounded=0;orthogonalLoop=1;jettySize=auto;html=1;" edge="1" parent="1" source="qZDUdrs_ygf457AYANE_-13" target="qZDUdrs_ygf457AYANE_-26">
          <mxGeometry relative="1" as="geometry">
            <mxPoint x="510" y="490" as="targetPoint" />
            <mxPoint x="510" y="423" as="sourcePoint" />
          </mxGeometry>
        </mxCell>
        <mxCell id="qZDUdrs_ygf457AYANE_-26" value="Elastic beanstalk" style="text;html=1;strokeColor=none;fillColor=none;align=center;verticalAlign=middle;whiteSpace=wrap;rounded=0;" vertex="1" parent="1">
          <mxGeometry x="530" y="447" width="60" height="30" as="geometry" />
        </mxCell>
      </root>
    </mxGraphModel>
  </diagram>
</mxfile>
